<svg xmlns="http://www.w3.org/2000/svg" xmlns:xlink="http://www.w3.org/1999/xlink" width="836" zoomAndPan="magnify" viewBox="0 0 627 370.499989" height="494" preserveAspectRatio="xMidYMid meet" version="1.0"><defs><clipPath id="b6f12f3788"><path d="M 0.421875 0 L 626.578125 0 L 626.578125 369.539062 L 0.421875 369.539062 Z M 0.421875 0 " clip-rule="nonzero"/></clipPath><clipPath id="2166fe5767"><path d="M 71.003906 0 L 555.789062 0 C 574.507812 0 592.460938 7.4375 605.699219 20.671875 C 618.933594 33.910156 626.371094 51.859375 626.371094 70.582031 L 626.371094 298.960938 C 626.371094 337.941406 594.769531 369.539062 555.789062 369.539062 L 71.003906 369.539062 C 52.285156 369.539062 34.332031 362.105469 21.09375 348.867188 C 7.859375 335.632812 0.421875 317.679688 0.421875 298.960938 L 0.421875 70.582031 C 0.421875 31.601562 32.023438 0 71.003906 0 Z M 71.003906 0 " clip-rule="nonzero"/></clipPath><clipPath id="ff47111eab"><path d="M 0.421875 0 L 626.457031 0 L 626.457031 369.539062 L 0.421875 369.539062 Z M 0.421875 0 " clip-rule="nonzero"/></clipPath><clipPath id="0821b1440c"><path d="M 71.003906 0 L 555.789062 0 C 574.507812 0 592.460938 7.4375 605.699219 20.671875 C 618.933594 33.910156 626.371094 51.859375 626.371094 70.582031 L 626.371094 298.960938 C 626.371094 337.941406 594.769531 369.539062 555.789062 369.539062 L 71.003906 369.539062 C 52.285156 369.539062 34.332031 362.105469 21.09375 348.867188 C 7.859375 335.632812 0.421875 317.679688 0.421875 298.960938 L 0.421875 70.582031 C 0.421875 31.601562 32.023438 0 71.003906 0 Z M 71.003906 0 " clip-rule="nonzero"/></clipPath><clipPath id="90da284fba"><rect x="0" width="627" y="0" height="370"/></clipPath><clipPath id="f68e445aa5"><path d="M 225 4.417969 L 406.863281 4.417969 L 406.863281 365.105469 L 225 365.105469 Z M 225 4.417969 " clip-rule="nonzero"/></clipPath><clipPath id="b34982f06c"><path d="M 542.5 17.902344 L 603.152344 17.902344 L 603.152344 78.550781 L 542.5 78.550781 Z M 542.5 17.902344 " clip-rule="nonzero"/></clipPath><clipPath id="7abfac2464"><path d="M 572.824219 17.902344 C 556.078125 17.902344 542.5 31.476562 542.5 48.226562 C 542.5 64.976562 556.078125 78.550781 572.824219 78.550781 C 589.574219 78.550781 603.152344 64.976562 603.152344 48.226562 C 603.152344 31.476562 589.574219 17.902344 572.824219 17.902344 Z M 572.824219 17.902344 " clip-rule="nonzero"/></clipPath><clipPath id="b0bbbe7d40"><path d="M 0.5 0.902344 L 61.152344 0.902344 L 61.152344 61.550781 L 0.5 61.550781 Z M 0.5 0.902344 " clip-rule="nonzero"/></clipPath><clipPath id="9795f02625"><path d="M 30.824219 0.902344 C 14.078125 0.902344 0.5 14.476562 0.5 31.226562 C 0.5 47.976562 14.078125 61.550781 30.824219 61.550781 C 47.574219 61.550781 61.152344 47.976562 61.152344 31.226562 C 61.152344 14.476562 47.574219 0.902344 30.824219 0.902344 Z M 30.824219 0.902344 " clip-rule="nonzero"/></clipPath><clipPath id="a8c9605ff8"><rect x="0" width="62" y="0" height="62"/></clipPath></defs><g clip-path="url(#b6f12f3788)"><g clip-path="url(#2166fe5767)"><g transform="matrix(1, 0, 0, 1, 0.000000000000000056, 0)"><g clip-path="url(#90da284fba)"><g clip-path="url(#ff47111eab)"><g clip-path="url(#0821b1440c)"><path fill="#301e67" d="M 0.421875 0 L 626.910156 0 L 626.910156 369.539062 L 0.421875 369.539062 Z M 0.421875 0 " fill-opacity="1" fill-rule="nonzero"/></g></g></g></g></g></g><g clip-path="url(#f68e445aa5)"><path fill="#ffffff" d="M 316.152344 93.941406 L 357.496094 4.417969 L 288.226562 4.957031 L 225.039062 153.5 C 257.269531 152.417969 291.652344 153.507812 323.882812 152.429688 C 300.109375 222.703125 276.332031 292.980469 252.550781 363.257812 C 252.007812 364.867188 254.253906 365.863281 255.066406 364.375 C 306.859375 269.265625 354.566406 187.867188 406.363281 92.761719 L 316.152344 93.941406 " fill-opacity="1" fill-rule="nonzero"/></g><path fill="#ffffff" d="M 139.570312 191.789062 C 89.359375 152.6875 54.671875 142.839844 2.859375 197.375 C 1.46875 203.542969 0.957031 209.785156 1.453125 216.039062 C 54.046875 159.832031 88.90625 169.519531 139.570312 208.972656 C 176.875 238.023438 209.601562 252.878906 258.707031 216.644531 C 261.339844 208.863281 263.972656 201.082031 266.605469 193.300781 C 213.039062 237.214844 178.839844 222.371094 139.570312 191.789062 " fill-opacity="1" fill-rule="nonzero"/><path fill="#ffffff" d="M 139.570312 100.660156 C 157.398438 114.542969 174.175781 125.179688 192.199219 128.554688 L 199.117188 112.292969 C 178.417969 110.640625 159.65625 99.117188 139.570312 83.476562 C 89.359375 44.375 54.671875 34.523438 2.859375 89.0625 C 1.46875 95.230469 0.957031 101.472656 1.453125 107.726562 C 54.046875 51.519531 88.90625 61.207031 139.570312 100.660156 " fill-opacity="1" fill-rule="nonzero"/><path fill="#ffffff" d="M 625.355469 125.472656 C 564.472656 182.480469 528.113281 167.773438 485.886719 134.890625 C 468.503906 121.355469 452.984375 111.328125 437.96875 106.265625 C 435.230469 111.265625 432.5 116.238281 429.777344 121.171875 C 447.371094 124.964844 465.328125 136.066406 485.886719 152.074219 C 528.113281 184.957031 564.472656 199.664062 625.355469 142.65625 C 625.832031 142.210938 625.859375 133.9375 625.53125 124.859375 C 625.480469 125.199219 625.421875 125.410156 625.355469 125.472656 " fill-opacity="1" fill-rule="nonzero"/><path fill="#ffffff" d="M 625.355469 179 C 564.472656 236.007812 528.113281 221.300781 485.886719 188.417969 C 457.695312 166.464844 434.394531 153.738281 410.210938 156.449219 C 406.578125 162.957031 402.960938 169.425781 399.347656 175.867188 C 427.574219 167.332031 453.503906 180.382812 485.886719 205.601562 C 528.113281 238.484375 564.472656 253.191406 625.355469 196.183594 C 625.832031 195.738281 625.859375 187.464844 625.53125 178.386719 C 625.480469 178.726562 625.421875 178.9375 625.355469 179 " fill-opacity="1" fill-rule="nonzero"/><path fill="#ffffff" d="M 625.355469 231.054688 C 564.472656 288.0625 528.113281 273.355469 485.886719 240.472656 C 443.109375 207.160156 411.59375 195.09375 371.160156 225.96875 C 364.792969 237.273438 358.417969 248.570312 352.035156 259.925781 C 356.25 256.207031 361.660156 251.199219 361.691406 251.007812 C 406.828125 210.527344 439.824219 221.785156 485.886719 257.65625 C 528.113281 290.539062 564.472656 305.246094 625.355469 248.238281 C 625.832031 247.792969 625.859375 239.519531 625.53125 230.441406 C 625.480469 230.78125 625.421875 230.992188 625.355469 231.054688 " fill-opacity="1" fill-rule="nonzero"/><path fill="#ffffff" d="M 139.570312 243.84375 C 89.359375 204.746094 54.671875 194.894531 2.859375 249.429688 C 1.46875 255.601562 0.957031 261.839844 1.453125 268.097656 C 54.046875 211.890625 88.90625 221.574219 139.570312 261.027344 C 170.964844 285.476562 199.121094 299.871094 236.519531 282.222656 C 238.871094 275.273438 241.21875 268.328125 243.570312 261.382812 C 202.59375 284.425781 172.90625 269.804688 139.570312 243.84375 " fill-opacity="1" fill-rule="nonzero"/><path fill="#ffffff" d="M 139.554688 155.445312 C 170.503906 179.625 198.308594 194.011719 235.011719 177.472656 L 208.144531 167.265625 C 183.746094 168.722656 162.527344 156.1875 139.582031 138.261719 C 89.4375 99.078125 54.761719 89.171875 2.859375 143.621094 C 1.460938 149.789062 0.9375 156.027344 1.421875 162.285156 C 54.109375 106.164062 88.953125 115.90625 139.554688 155.445312 " fill-opacity="1" fill-rule="nonzero"/><path fill="#ffffff" d="M 625.355469 70.6875 C 564.472656 127.695312 528.113281 112.988281 485.886719 80.101562 C 443.160156 46.832031 411.667969 34.761719 371.304688 65.5 L 408.65625 65.5 C 433.402344 62.058594 457.089844 74.863281 485.886719 97.285156 C 528.113281 130.171875 564.472656 144.878906 625.355469 87.871094 C 625.832031 87.421875 625.859375 79.152344 625.53125 70.074219 C 625.480469 70.414062 625.421875 70.625 625.355469 70.6875 " fill-opacity="1" fill-rule="nonzero"/><g clip-path="url(#b34982f06c)"><g clip-path="url(#7abfac2464)"><g transform="matrix(1, 0, 0, 1, 542, 17)"><g clip-path="url(#a8c9605ff8)"><g clip-path="url(#b0bbbe7d40)"><g clip-path="url(#9795f02625)"><path fill="#ffffff" d="M 0.5 0.902344 L 61.152344 0.902344 L 61.152344 61.550781 L 0.5 61.550781 Z M 0.5 0.902344 " fill-opacity="1" fill-rule="nonzero"/></g></g></g></g></g></g></svg>